{
  "accessors": [
    {
      "bufferView": 2,
      "componentType": 5126,
      "count": 65532,
      "max": [
        8.3499927520751953,
        13.759760856628418,
        3.0888481140136719
      ],
      "min": [
        -9.5950956344604492,
        3.2679853439331055,
        -4.5268898010253906
      ],
      "type": "VEC3"
    },
    {
      "bufferView": 2,
      "byteOffset": 786384,
      "componentType": 5126,
      "count": 65532,
      "max": [
        0.9999840259552002,
        0.99996089935302734,
        0.99999946355819702
      ],
      "min": [
        -0.9998822808265686,
        -0.99999243021011353,
        -0.999847412109375
      ],
      "type": "VEC3"
    },
    {
      "bufferView": 3,
      "componentType": 5126,
      "count": 65532,
      "max": [
        0.98039215803146362,
        0.97647058963775635,
        0.97254902124404907,
        1
      ],
      "min": [
        0,
        0.0039215688593685627,
        0.0039215688593685627,
        1
      ],
      "type": "VEC4"
    },
    {
      "bufferView": 1,
      "componentType": 5126,
      "count": 65532,
      "max": [
        0.99902498722076416,
        1
      ],
      "min": [
        0.00017100000695791095,
        0
      ],
      "type": "VEC2"
    },
    {
      "bufferView": 0,
      "componentType": 5125,
      "count": 273498,
      "max": [
        65531
      ],
      "min": [
        0
      ],
      "type": "SCALAR"
    },
    {
      "bufferView": 2,
      "byteOffset": 1572768,
      "componentType": 5126,
      "count": 18819,
      "max": [
        7.2237076759338379,
        12.695943832397461,
        2.9231836795806885
      ],
      "min": [
        -10.403125762939453,
        3.1188349723815918,
        -4.1756801605224609
      ],
      "type": "VEC3"
    },
    {
      "bufferView": 2,
      "byteOffset": 1798596,
      "componentType": 5126,
      "count": 18819,
      "max": [
        0.99974030256271362,
        0.99975663423538208,
        0.99999815225601196
      ],
      "min": [
        -0.99984186887741089,
        -0.99987238645553589,
        -0.99935054779052734
      ],
      "type": "VEC3"
    },
    {
      "bufferView": 3,
      "byteOffset": 1048512,
      "componentType": 5126,
      "count": 18819,
      "max": [
        0.69803923368453979,
        0.72549021244049072,
        0.78039216995239258,
        1
      ],
      "min": [
        0,
        0.0039215688593685627,
        0.0039215688593685627,
        1
      ],
      "type": "VEC4"
    },
    {
      "bufferView": 1,
      "byteOffset": 524256,
      "componentType": 5126,
      "count": 18819,
      "max": [
        0.99726098775863647,
        1
      ],
      "min": [
        0.00019999999494757503,
        2.5999999706982635e-05
      ],
      "type": "VEC2"
    },
    {
      "bufferView": 0,
      "byteOffset": 1093992,
      "componentType": 5125,
      "count": 66288,
      "max": [
        18818
      ],
      "min": [
        0
      ],
      "type": "SCALAR"
    },
    {
      "bufferView": 2,
      "byteOffset": 2024424,
      "componentType": 5126,
      "count": 65532,
      "max": [
        8.6450099945068359,
        11.433244705200195,
        3.1068675518035889
      ],
      "min": [
        -9.2853460311889648,
        3.0993223190307617,
        -4.3588733673095703
      ],
      "type": "VEC3"
    },
    {
      "bufferView": 2,
      "byteOffset": 2810808,
      "componentType": 5126,
      "count": 65532,
      "max": [
        0.99998176097869873,
        0.99999761581420898,
        0.99999940395355225
      ],
      "min": [
        -0.9997248649597168,
        -0.99999356269836426,
        -0.9998323917388916
      ],
      "type": "VEC3"
    },
    {
      "bufferView": 3,
      "byteOffset": 1349616,
      "componentType": 5126,
      "count": 65532,
      "max": [
        0.96470588445663452,
        0.94509804248809814,
        0.9686274528503418,
        1
      ],
      "min": [
        0.0039215688593685627,
        0.0039215688593685627,
        0.0039215688593685627,
        1
      ],
      "type": "VEC4"
    },
    {
      "bufferView": 1,
      "byteOffset": 674808,
      "componentType": 5126,
      "count": 65532,
      "max": [
        1.9994020462036133,
        1
      ],
      "min": [
        1,
        0
      ],
      "type": "VEC2"
    },
    {
      "bufferView": 0,
      "byteOffset": 1359144,
      "componentType": 5125,
      "count": 248595,
      "max": [
        65531
      ],
      "min": [
        0
      ],
      "type": "SCALAR"
    },
    {
      "bufferView": 2,
      "byteOffset": 3597192,
      "componentType": 5126,
      "count": 8664,
      "max": [
        7.2175626754760742,
        11.179080009460449,
        3.1068675518035889
      ],
      "min": [
        -10.255324363708496,
        3.1128716468811035,
        -4.1811733245849609
      ],
      "type": "VEC3"
    },
    {
      "bufferView": 2,
      "byteOffset": 3701160,
      "componentType": 5126,
      "count": 8664,
      "max": [
        0.99337822198867798,
        0.99988710880279541,
        0.9995419979095459
      ],
      "min": [
        -0.99986892938613892,
        -0.99687314033508301,
        -0.99909275770187378
      ],
      "type": "VEC3"
    },
    {
      "bufferView": 3,
      "byteOffset": 2398128,
      "componentType": 5126,
      "count": 8664,
      "max": [
        0.69803923368453979,
        0.72549021244049072,
        0.78823530673980713,
        1
      ],
      "min": [
        0.0039215688593685627,
        0.0039215688593685627,
        0.0039215688593685627,
        1
      ],
      "type": "VEC4"
    },
    {
      "bufferView": 1,
      "byteOffset": 1199064,
      "componentType": 5126,
      "count": 8664,
      "max": [
        2,
        0.99993598461151123
      ],
      "min": [
        1.0038620233535767,
        0.042911998927593231
      ],
      "type": "VEC2"
    },
    {
      "bufferView": 0,
      "byteOffset": 2353524,
      "componentType": 5125,
      "count": 24465,
      "max": [
        8663
      ],
      "min": [
        0
      ],
      "type": "SCALAR"
    },
    {
      "bufferView": 2,
      "byteOffset": 3805128,
      "componentType": 5126,
      "count": 65532,
      "max": [
        9.2686090469360352,
        12.203995704650879,
        3.0846366882324219
      ],
      "min": [
        -9.6271305084228516,
        3.0552988052368164,
        -4.4477319717407227
      ],
      "type": "VEC3"
    },
    {
      "bufferView": 2,
      "byteOffset": 4591512,
      "componentType": 5126,
      "count": 65532,
      "max": [
        0.99999326467514038,
        0.99997836351394653,
        0.99999529123306274
      ],
      "min": [
        -0.99952894449234009,
        -0.99999469518661499,
        -0.99979233741760254
      ],
      "type": "VEC3"
    },
    {
      "bufferView": 3,
      "byteOffset": 2536752,
      "componentType": 5126,
      "count": 65532,
      "max": [
        0.96470588445663452,
        0.9529411792755127,
        0.97647058963775635,
        1
      ],
      "min": [
        0.0039215688593685627,
        0.0078431377187371254,
        0.0078431377187371254,
        1
      ],
      "type": "VEC4"
    },
    {
      "bufferView": 1,
      "byteOffset": 1268376,
      "componentType": 5126,
      "count": 65532,
      "max": [
        3,
        1
      ],
      "min": [
        2,
        0
      ],
      "type": "VEC2"
    },
    {
      "bufferView": 0,
      "byteOffset": 2451384,
      "componentType": 5125,
      "count": 271005,
      "max": [
        65531
      ],
      "min": [
        0
      ],
      "type": "SCALAR"
    },
    {
      "bufferView": 2,
      "byteOffset": 5377896,
      "componentType": 5126,
      "count": 12071,
      "max": [
        7.2048244476318359,
        13.026809692382812,
        3.1001253128051758
      ],
      "min": [
        -10.389922142028809,
        4.2348122596740723,
        -3.077049732208252
      ],
      "type": "VEC3"
    },
    {
      "bufferView": 2,
      "byteOffset": 5522748,
      "componentType": 5126,
      "count": 12071,
      "max": [
        0.99297213554382324,
        0.99924290180206299,
        0.99993038177490234
      ],
      "min": [
        -0.99999117851257324,
        -0.99932843446731567,
        -0.99909830093383789
      ],
      "type": "VEC3"
    },
    {
      "bufferView": 3,
      "byteOffset": 3585264,
      "componentType": 5126,
      "count": 12071,
      "max": [
        0.69019609689712524,
        0.71764707565307617,
        0.78823530673980713,
        1
      ],
      "min": [
        0.0039215688593685627,
        0.0039215688593685627,
        0.0078431377187371254,
        1
      ],
      "type": "VEC4"
    },
    {
      "bufferView": 1,
      "byteOffset": 1792632,
      "componentType": 5126,
      "count": 12071,
      "max": [
        2.9992949962615967,
        0.99648797512054443
      ],
      "min": [
        2,
        0.00085900002159178257
      ],
      "type": "VEC2"
    },
    {
      "bufferView": 0,
      "byteOffset": 3535404,
      "componentType": 5125,
      "count": 37905,
      "max": [
        12070
      ],
      "min": [
        0
      ],
      "type": "SCALAR"
    }
  ],
  "asset": {
    "extras": {
      "author": "Nikitos & 3130 (https://sketchfab.com/vrcityphoto)",
      "license": "CC-BY-4.0 (http://creativecommons.org/licenses/by/4.0/)",
      "source": "https://sketchfab.com/3d-models/volvo-car-low-29942c1225d54f928d68d631a0320c71",
      "title": "VOLVO Car Low"
    },
    "generator": "Sketchfab-7.68.0",
    "version": "2.0"
  },
  "bufferViews": [
    {
      "buffer": 0,
      "byteLength": 3687024,
      "byteOffset": 0,
      "name": "floatBufferViews",
      "target": 34963
    },
    {
      "buffer": 0,
      "byteLength": 1889200,
      "byteOffset": 3687024,
      "byteStride": 8,
      "name": "floatBufferViews",
      "target": 34962
    },
    {
      "buffer": 0,
      "byteLength": 5667600,
      "byteOffset": 5576224,
      "byteStride": 12,
      "name": "floatBufferViews",
      "target": 34962
    },
    {
      "buffer": 0,
      "byteLength": 3778400,
      "byteOffset": 11243824,
      "byteStride": 16,
      "name": "floatBufferViews",
      "target": 34962
    }
  ],
  "buffers": [
    {
      "byteLength": 15022224,
      "uri": "scene.bin"
    }
  ],
  "extensionsUsed": [
    "KHR_materials_unlit"
  ],
  "images": [
    {
      "uri": "textures/VOLVO_car_low.1001_baseColor.jpeg"
    },
    {
      "uri": "textures/VOLVO_car_low.1002_baseColor.jpeg"
    },
    {
      "uri": "textures/VOLVO_car_low.1003_baseColor.jpeg"
    }
  ],
  "materials": [
    {
      "doubleSided": true,
      "emissiveFactor": [
        0,
        0,
        0
      ],
      "extensions": {
        "KHR_materials_unlit": {}
      },
      "name": "VOLVO_car_low.1001",
      "pbrMetallicRoughness": {
        "baseColorFactor": [
          1,
          1,
          1,
          1
        ],
        "baseColorTexture": {
          "index": 0,
          "texCoord": 0
        },
        "metallicFactor": 0,
        "roughnessFactor": 1
      }
    },
    {
      "doubleSided": true,
      "emissiveFactor": [
        0,
        0,
        0
      ],
      "extensions": {
        "KHR_materials_unlit": {}
      },
      "name": "VOLVO_car_low.1002",
      "pbrMetallicRoughness": {
        "baseColorFactor": [
          1,
          1,
          1,
          1
        ],
        "baseColorTexture": {
          "index": 1,
          "texCoord": 0
        },
        "metallicFactor": 0,
        "roughnessFactor": 1
      }
    },
    {
      "doubleSided": true,
      "emissiveFactor": [
        0,
        0,
        0
      ],
      "extensions": {
        "KHR_materials_unlit": {}
      },
      "name": "VOLVO_car_low.1003",
      "pbrMetallicRoughness": {
        "baseColorFactor": [
          1,
          1,
          1,
          1
        ],
        "baseColorTexture": {
          "index": 2,
          "texCoord": 0
        },
        "metallicFactor": 0,
        "roughnessFactor": 1
      }
    }
  ],
  "meshes": [
    {
      "primitives": [
        {
          "attributes": {
            "COLOR_0": 2,
            "NORMAL": 1,
            "POSITION": 0,
            "TEXCOORD_0": 3
          },
          "indices": 4,
          "material": 0,
          "mode": 4
        }
      ]
    },
    {
      "primitives": [
        {
          "attributes": {
            "COLOR_0": 7,
            "NORMAL": 6,
            "POSITION": 5,
            "TEXCOORD_0": 8
          },
          "indices": 9,
          "material": 0,
          "mode": 4
        }
      ]
    },
    {
      "primitives": [
        {
          "attributes": {
            "COLOR_0": 12,
            "NORMAL": 11,
            "POSITION": 10,
            "TEXCOORD_0": 13
          },
          "indices": 14,
          "material": 1,
          "mode": 4
        }
      ]
    },
    {
      "primitives": [
        {
          "attributes": {
            "COLOR_0": 17,
            "NORMAL": 16,
            "POSITION": 15,
            "TEXCOORD_0": 18
          },
          "indices": 19,
          "material": 1,
          "mode": 4
        }
      ]
    },
    {
      "primitives": [
        {
          "attributes": {
            "COLOR_0": 22,
            "NORMAL": 21,
            "POSITION": 20,
            "TEXCOORD_0": 23
          },
          "indices": 24,
          "material": 2,
          "mode": 4
        }
      ]
    },
    {
      "primitives": [
        {
          "attributes": {
            "COLOR_0": 27,
            "NORMAL": 26,
            "POSITION": 25,
            "TEXCOORD_0": 28
          },
          "indices": 29,
          "material": 2,
          "mode": 4
        }
      ]
    }
  ],
  "nodes": [
    {
      "children": [
        1
      ],
      "name": "RootNode (gltf orientation matrix)",
      "rotation": [
        -0.70710678118654746,
        -0,
        -0,
        0.70710678118654757
      ]
    },
    {
      "children": [
        2
      ],
      "matrix": [
        0.99726849794387817,
        0,
        0.073861807584762573,
        0,
        0.023049099370837212,
        0.95006334781646729,
        -0.31120467185974121,
        0,
        -0.070173397660255432,
        0.31205707788467407,
        0.94746822118759155,
        0,
        -0.24515935778617859,
        0.64140778779983521,
        2.621063232421875,
        1
      ],
      "name": "RootNode (model correction matrix)"
    },
    {
      "children": [
        3,
        4,
        5,
        6,
        7,
        8
      ],
      "name": "VOLVO car low.obj.cleaner.materialmerger.gles"
    },
    {
      "mesh": 0,
      "name": ""
    },
    {
      "mesh": 1,
      "name": ""
    },
    {
      "mesh": 2,
      "name": ""
    },
    {
      "mesh": 3,
      "name": ""
    },
    {
      "mesh": 4,
      "name": ""
    },
    {
      "mesh": 5,
      "name": ""
    }
  ],
  "samplers": [
    {
      "magFilter": 9729,
      "minFilter": 9987,
      "wrapS": 10497,
      "wrapT": 10497
    }
  ],
  "scene": 0,
  "scenes": [
    {
      "name": "OSG_Scene",
      "nodes": [
        0
      ]
    }
  ],
  "textures": [
    {
      "sampler": 0,
      "source": 0
    },
    {
      "sampler": 0,
      "source": 1
    },
    {
      "sampler": 0,
      "source": 2
    }
  ]
}

